<?xml version="1.0" encoding="UTF-8" standalone="no"?>
<svg
   xmlns:dc="http://purl.org/dc/elements/1.1/"
   xmlns:cc="http://creativecommons.org/ns#"
   xmlns:rdf="http://www.w3.org/1999/02/22-rdf-syntax-ns#"
   xmlns:svg="http://www.w3.org/2000/svg"
   xmlns="http://www.w3.org/2000/svg"
   id="svg8"
   version="1.1"
   viewBox="0 0 423.33332 315.91251"
   height="1194"
   width="1600">
  <defs
     id="defs2">
    <linearGradient
       gradientTransform="translate(0,-2280)"
       y2="2447.1699"
       x2="715.29999"
       y1="2447.1699"
       x1="0.5"
       gradientUnits="userSpaceOnUse"
       id="SVGID_1_">
      <stop
         id="stop128"
         style="stop-color:#0085D3"
         offset="0" />
      <stop
         id="stop130"
         style="stop-color:#3FA2DA;stop-opacity:0.83"
         offset="1" />
      <stop
         id="stop132"
         style="stop-color:#0E8CD5;stop-opacity:0.2"
         offset="1" />
    </linearGradient>
  </defs>
  <metadata
     id="metadata5">
    <rdf:RDF>
      <cc:Work
         rdf:about="">
        <dc:format>image/svg+xml</dc:format>
        <dc:type
           rdf:resource="http://purl.org/dc/dcmitype/StillImage" />
        <dc:title></dc:title>
      </cc:Work>
    </rdf:RDF>
  </metadata>
  <g
     transform="translate(0,18.912517)"
     id="layer1">
    <g
       id="g145"
       class="st4"
       transform="matrix(0.26458333,0,0,0.26458333,-61.856218,101.48553)">
      <path
         id="path143"
         d="M 1283,144.3"
         class="st5" />
    </g>
    <g
       id="g149"
       class="st4"
       transform="matrix(0.26458333,0,0,0.26458333,-61.856218,101.48553)">
      <path
         id="path147"
         d="M 3,144.3"
         class="st5" />
    </g>
    <g
       transform="matrix(0.33036367,0,0,0.45032422,-0.00869366,175.26395)"
       id="g4419">
      <path
         style="opacity:0.52999998;fill:#0053a3"
         class="st0"
         d="m 0.5,113.1 c 253.4,-64.8 454.6,-50.8 625,20.3 l 120,50.4 87,34.9 c 149.1,46.3 298.4,15.1 448,-140.5 V 270.7 H 0.5 V 120.4"
         id="path4314" />
      <path
         class="st1"
         d="m 0.5,71.7 c 169.2,169.5 416.3,184.5 714.8,99.4 v 99.6 H 0.5 Z"
         id="path4323"
         style="opacity:0.52999998;fill:url(#SVGID_1_-3)" />
      <path
         style="opacity:0.52999998;fill:#3fa2da;enable-background:new"
         class="st2"
         d="m 715.5,270.7 v -99.9 c 167.2,-63.8 356.3,-99.7 565,-53.2 v 153.1"
         id="path4325" />
      <path
         style="opacity:0.52999998;fill:none;stroke:#f6f6f6;stroke-width:1.80260003;stroke-miterlimit:10"
         class="st3"
         d="M 1289,169.8"
         id="path4327" />
      <path
         style="opacity:0.52999998;fill:none;stroke:#f6f6f6;stroke-width:1.80260003;stroke-miterlimit:10"
         class="st3"
         d="M 9,138.8"
         id="path4329" />
      <g
         style="opacity:0.52999998"
         class="st4"
         id="g4333">
	<path
   style="fill:none;stroke:#f6f6f6;stroke-width:1.80260003;stroke-miterlimit:10"
   class="st5"
   d="M 1283,179.3"
   id="path4331" />

</g>
      <g
         style="opacity:0.52999998"
         class="st4"
         id="g4337">
	<path
   style="fill:none;stroke:#f6f6f6;stroke-width:1.80260003;stroke-miterlimit:10"
   class="st5"
   d="M 3,148.3"
   id="path4335" />

</g>
      <path
         style="opacity:0.52999998;fill:none;stroke:#f6f6f6;stroke-width:1.80260003;stroke-miterlimit:10"
         class="st3"
         d="M 1283,185.3"
         id="path4339" />
      <path
         style="opacity:0.52999998;fill:none;stroke:#f6f6f6;stroke-width:1.80260003;stroke-miterlimit:10"
         class="st3"
         d="M 3,154.3"
         id="path4341" />
      <path
         style="opacity:0.52999998;fill:none;stroke:#f6f6f6;stroke-width:19.23920059;stroke-miterlimit:10;stroke-dasharray:48.098, 14.4294"
         class="st6"
         d="M 959,520"
         id="path4343" />
      <path
         style="opacity:0.52999998;fill:none;stroke:#f6f6f6;stroke-width:0.90130001;stroke-miterlimit:10"
         class="st7"
         d="M 1285.8,102.4 C 1148.9,181 961.2,228.3 716,241"
         id="path4345" />
      <path
         style="opacity:0.52999998;fill:none;stroke:#f6f6f6;stroke-width:0.90130001;stroke-miterlimit:10"
         class="st7"
         d="M 1285.8,121.1 C 1161.4,195.2 979.4,243.7 740,250.8"
         id="path4347" />
      <path
         style="opacity:0.52999998;fill:none;stroke:#f6f6f6;stroke-width:0.90130001;stroke-miterlimit:10"
         class="st7"
         d="M 1285.8,137.3 C 1177.7,216.7 1000.3,259.2 762,259.7"
         id="path4349" />
      <path
         style="opacity:0.52999998;fill:none;stroke:#f6f6f6;stroke-width:0.90130001;stroke-miterlimit:10"
         class="st7"
         d="M 1288.8,151.1 C 1155.5,239 970.6,279.6 818.8,273"
         id="path4351" />
      <path
         style="opacity:0.52999998;fill:none;stroke:#f6f6f6;stroke-width:0.90130001;stroke-miterlimit:10"
         class="st7"
         d="M 1288.8,169.8 C 1187,255.4 1032,296.1 818.8,332.3"
         id="path4353" />
      <path
         style="opacity:0.52999998;fill:none;stroke:#f6f6f6;stroke-width:0.90130001;stroke-miterlimit:10"
         class="st7"
         d="m 1288.8,191.7 c -165.5,125.1 -401.5,87.7 -470,162.5"
         id="path4355" />
      <path
         style="opacity:0.52999998;fill:none;stroke:#f6f6f6;stroke-width:0.90130001;stroke-miterlimit:10"
         class="st7"
         d="m 1285.8,160.9 c -150.7,102.5 -289,132.7 -470,162.5"
         id="path4357" />
      <path
         style="opacity:0.52999998;fill:none;stroke:#f6f6f6;stroke-width:0.90130001;stroke-miterlimit:10"
         class="st7"
         d="M 819,272.7 C 741.6,69 617.5,-67.7 324.7,63.1 192.3,155.1 63.7,150.7 3.5,119"
         id="path4359" />
      <path
         style="opacity:0.52999998;fill:none;stroke:#f6f6f6;stroke-width:0.90130001;stroke-miterlimit:10"
         class="st7"
         d="M 789,273.5 C 711.8,87 532,26.2 325.2,114 189.8,171.5 6.8,203.9 -8,156.8"
         id="path4361" />
      <path
         style="opacity:0.52999998;fill:none;stroke:#f6f6f6;stroke-width:0.90130001;stroke-miterlimit:10"
         class="st7"
         d="M 3.5,206.4"
         id="path4363" />
      <path
         style="opacity:0.52999998;fill:none;stroke:#f6f6f6;stroke-width:0.90130001;stroke-miterlimit:10"
         class="st7"
         d="M 772.8,270.7"
         id="path4365" />
      <path
         style="opacity:0.52999998;fill:none;stroke:#f6f6f6;stroke-width:0.90130001;stroke-miterlimit:10"
         class="st7"
         d="M 0,227.1"
         id="path4367" />
      <path
         style="opacity:0.52999998;fill:none;stroke:#f6f6f6;stroke-width:0.90130001;stroke-miterlimit:10"
         class="st7"
         d="M 732,270.5"
         id="path4369" />
      <path
         style="opacity:0.52999998;fill:none;stroke:#f6f6f6;stroke-width:0.90130001;stroke-miterlimit:10"
         class="st7"
         d="M 800,272.7 C 721.4,61.1 538.2,-7.9 327.4,91.7 189.5,156.9 3,193.7 -12,140.2"
         id="path4371" />
      <path
         style="opacity:0.52999998;fill:none;stroke:#f6f6f6;stroke-width:0.90130001;stroke-miterlimit:10"
         class="st7"
         d="M 809,272.7 C 728.6,42.1 541.4,-33.1 326,75.4 185,146.5 -5.6,186.5 -21,128.3"
         id="path4373" />
      <path
         style="opacity:0.52999998;fill:none;stroke:#f6f6f6;stroke-width:0.90130001;stroke-miterlimit:10"
         class="st7"
         d="M 762,259.7 C 688.9,96 518.6,42.7 322.6,119.7 194.3,170.2 21,198.6 7,157.3"
         id="path4375" />
      <path
         style="opacity:0.52999998;fill:none;stroke:#f6f6f6;stroke-width:0.90130001;stroke-miterlimit:10"
         class="st7"
         d="M 740,250.8 C 668.4,95.5 501.8,44.9 309.9,118 184.4,165.8 14.7,192.8 1,153.6"
         id="path4377" />
      <path
         style="opacity:0.52999998;fill:none;stroke:#f6f6f6;stroke-width:0.90130001;stroke-miterlimit:10"
         class="st7"
         d="M 716,241 C 646,53 482.9,-8.3 295.2,80.2 172.4,138.2 6.4,170.8 -7,123.3"
         id="path4379" />
    </g>
  </g>
  <style
     type="text/css"
     id="style4312">
	.st0{opacity:0.53;fill:#0053A3;}
	.st1{opacity:0.53;fill:url(#SVGID_1_);}
	.st2{opacity:0.53;fill:#3FA2DA;enable-background:new    ;}
	.st3{opacity:0.53;fill:none;stroke:#F6F6F6;stroke-width:1.8026;stroke-miterlimit:10;}
	.st4{opacity:0.53;}
	.st5{fill:none;stroke:#F6F6F6;stroke-width:1.8026;stroke-miterlimit:10;}
	.st6{opacity:0.53;fill:none;stroke:#F6F6F6;stroke-width:19.2392;stroke-miterlimit:10;stroke-dasharray:48.098,14.4294;}
	.st7{opacity:0.53;fill:none;stroke:#F6F6F6;stroke-width:0.9013;stroke-miterlimit:10;}
</style>
</svg>
